{"version":3,"term":{"cols":133,"rows":14,"type":"xterm-256color","theme":{"fg":"#cccccc","bg":"#181818","palette":"#000000:#cd3131:#0dbc79:#e5e510:#2472c8:#bc3fbc:#11a8cd:#e5e5e5:#666666:#f14c4c:#23d18b:#f5f543:#3b8eea:#d670d6:#29b8db:#e5e5e5"}},"timestamp":1770721764,"command":"vhs demo/test.tape","env":{"SHELL":"/bin/zsh"}}
[0.086, "o", "\u001b]11;?\u001b\\\u001b[6n"]
[0.086, "o", "\u001b[90mFile: demo/test.tape\u001b[0m\r\n"]
[1.205, "o", "\u001b[94mOutput\u001b[0m .ascii \u001b[92mdemo/output/test.ascii\u001b[0m\r\n"]
[0.002, "o", "\u001b[94mOutput\u001b[0m .cast \u001b[92mdemo/output/test.cast\u001b[0m\r\n"]
[0.019, "o", "\u001b[94mType\u001b[0m \u001b[92mecho hello\u001b[0m\r\n"]
[0.526, "o", "\u001b[94mEnter\u001b[0m \u001b[33m1\u001b[0m\r\n"]
[0.058, "o", "\u001b[94mSleep\u001b[0m \u001b[93m1s\u001b[0m\r\n"]
[1.102, "o", "\u001b[90mCreating demo/output/test.cast...\u001b[0m\r\n"]
[0.355, "o", "ffmpeg version 8.0.1 Copyright (c) 2000-2025 the FFmpeg developers\r\n  built with Apple clang version 17.0.0 (clang-1700.6.3.2)\r\n  configuration: --prefix=/opt/homebrew/Cellar/ffmpeg/8.0.1_2 --enable-shared --enable-pthreads --enable-version3 --cc=clang --host-cflags= --host-ldflags= --enable-ffplay --enable-gpl --enable-libsvtav1 --enable-libopus --enable-libx264 --enable-libmp3lame --enable-libdav1d --enable-libvpx --enable-libx265 --enable-videotoolbox --enable-audiotoolbox --enable-neon\r\n  libavutil      60.  8.100 / 60.  8.100\r\n  libavcodec     62. 11.100 / 62. 11.100\r\n  libavformat    62.  3.100 / 62.  3.100\r\n  libavdevice    62.  1.100 / 62.  1.100\r\n  libavfilter    11.  4.100 / 11.  4.100\r\n  libswscale      9.  1.100 /  9.  1.100\r\n  libswresample   6.  1.100 /  6.  1.100\r\nInput #0, image2, from '/var/folders/8_/3qw2p2dn5pqf8xhmj7qg4fn00000gp/T/vhs328718599/frame-text-%05d.png':\r\n  Duration: 00:00:03.00, start: 0.000000, bitrate: N/A\r\n  Stream #0:0: Video: png, rgba(pc, gbr/unknown/unknown), 1050x450, 2"]
[0.000, "o", "5 fps, 25 tbr, 25 tbn\r\nInput #1, image2, from '/var/folders/8_/3qw2p2dn5pqf8xhmj7qg4fn00000gp/T/vhs328718599/frame-cursor-%05d.png':\r\n  Duration: 00:00:03.00, start: 0.000000, bitrate: N/A\r\n  Stream #1:0: Video: png, rgba(pc, gbr/unknown/unknown), 1050x450, 25 fps, 25 tbr, 25 tbn\r\nInput #2, lavfi, from 'color=#171717:s=1200x600':\r\n  Duration: N/A, start: 0.000000, bitrate: N/A\r\n  Stream #2:0: Video: wrapped_avframe, yuv420p, 1200x600 [SAR 1:1 DAR 2:1], 25 fps, 25 tbr, 25 tbn\r\n[AVFormatContext @ 0x7b1020780] Unable to choose an output format for 'demo/output/test.cast'; use a standard extension for the filename or specify the format manually.\r\n[out#0 @ 0x7b0c00cc0] Error initializing the muxer for demo/output/test.cast: Invalid argument\r\nError opening output file demo/output/test.cast.\r\nError opening output files: Invalid argument\r\n\r\n"]
[0.014, "o", "\u001b[38;5;238mHost your GIF on vhs.charm.sh: vhs publish <file>.gif\u001b[0m\r\n"]
[0.001, "x", "0"]
